<svg xmlns="http://www.w3.org/2000/svg" xmlns:xlink="http://www.w3.org/1999/xlink" xmlns:lucid="lucid" width="4596.67" height="1041.5"><g transform="translate(-30 20)" lucid:page-tab-id="A0YH9BO-~oi."><path d="M1958.48 8c0-4.42 3.58-8 8-8h693.77c4.4 0 8 3.58 8 8v124c0 4.42-3.6 8-8 8h-693.77c-4.42 0-8-3.58-8-8z" stroke="#000" stroke-opacity="0" stroke-width="2" fill="#fff" fill-opacity="0"/><use xlink:href="#a" transform="matrix(1,0,0,1,1962.4754052966186,4) translate(93.12481481481478 78.34666666666666)"/><use xlink:href="#b" transform="matrix(1,0,0,1,1962.4754052966186,4) translate(310.90259259259255 78.34666666666666)"/><path d="M2233.36 165c0-2.76 2.24-5 5-5h150c2.76 0 5 2.24 5 5v70c0 2.76-2.24 5-5 5h-150c-2.76 0-5-2.24-5-5z" stroke="#000" fill="#259b9c"/><use xlink:href="#c" transform="matrix(1,0,0,1,2238.360510924335,165) translate(29.099999999999994 38.4625)"/><path d="M1200 345c0-2.76 2.24-5 5-5h210c2.76 0 5 2.24 5 5v70c0 2.76-2.24 5-5 5h-210c-2.76 0-5-2.24-5-5z" stroke="#000" fill="#3fb8b9"/><use xlink:href="#d" transform="matrix(1,0,0,1,1205,345) translate(19.599999999999994 38.4625)"/><use xlink:href="#e" transform="matrix(1,0,0,1,1205,345) translate(107.5 38.4625)"/><use xlink:href="#f" transform="matrix(1,0,0,1,1205,345) translate(150.4 38.4625)"/><path d="M3786.67 345c0-2.76 2.24-5 5-5h210c2.76 0 5 2.24 5 5v70c0 2.76-2.24 5-5 5h-210c-2.76 0-5-2.24-5-5z" stroke="#000" fill="#3fb8b9"/><use xlink:href="#g" transform="matrix(1,0,0,1,3791.666666666665,345) translate(24.099999999999994 38.4625)"/><use xlink:href="#e" transform="matrix(1,0,0,1,3791.666666666665,345) translate(103 38.4625)"/><use xlink:href="#f" transform="matrix(1,0,0,1,3791.666666666665,345) translate(145.9 38.4625)"/><path d="M1310 338.5V295c0-2.76 2.24-5 5-5h993.36c2.76 0 5-2.24 5-5v-43.5" stroke="#000" stroke-width="2" fill="none"/><path d="M1311 339.5h-2v-1.03h2zM2314.36 241.53h-2v-1.03h2z"/><path d="M3896.67 338.5V295c0-2.76-2.24-5-5-5h-1573.3c-2.77 0-5-2.24-5-5v-43.5" stroke="#000" stroke-width="2" fill="none"/><path d="M3897.67 339.5h-2v-1.03h2zM2314.36 241.53h-2v-1.03h2z"/><path d="M460 485c0-2.76 2.24-5 5-5h170c2.76 0 5 2.24 5 5v110c0 2.76-2.24 5-5 5H465c-2.76 0-5-2.24-5-5z" stroke="#000" fill="#3fb8b9"/><use xlink:href="#h" transform="matrix(1,0,0,1,465,485) translate(20.625 48.775)"/><use xlink:href="#i" transform="matrix(1,0,0,1,465,485) translate(35.625 48.775)"/><use xlink:href="#j" transform="matrix(1,0,0,1,465,485) translate(144.375 48.775)"/><use xlink:href="#k" transform="matrix(1,0,0,1,465,485) translate(14.574999999999989 70.375)"/><use xlink:href="#l" transform="matrix(1,0,0,1,465,485) translate(70.475 70.375)"/><path d="M1990 485c0-2.76 2.24-5 5-5h150c2.76 0 5 2.24 5 5v110c0 2.76-2.24 5-5 5h-150c-2.76 0-5-2.24-5-5z" stroke="#000" fill="#3fb8b9"/><use xlink:href="#h" transform="matrix(1,0,0,1,1995,485) translate(21.049999999999997 38.4625)"/><use xlink:href="#m" transform="matrix(1,0,0,1,1995,485) translate(36.05 38.4625)"/><use xlink:href="#j" transform="matrix(1,0,0,1,1995,485) translate(123.95 38.4625)"/><use xlink:href="#n" transform="matrix(1,0,0,1,1995,485) translate(30.574999999999996 60.0625)"/><use xlink:href="#l" transform="matrix(1,0,0,1,1995,485) translate(32.525 81.66250000000001)"/><path d="M2070 478.5V455c0-2.76-2.24-5-5-5h-750c-2.76 0-5-2.24-5-5v-23.5" stroke="#000" stroke-width="2" fill="none"/><path d="M2071 479.5h-2v-1.03h2zM1311 421.53h-2v-1.03h2z"/><path d="M550 478.5V455c0-2.76 2.24-5 5-5h750c2.76 0 5-2.24 5-5v-23.5" stroke="#000" stroke-width="2" fill="none"/><path d="M551 479.5h-2v-1.03h2zM1311 421.53h-2v-1.03h2z"/><path d="M830 705.5c0-2.76 2.24-5 5-5h210c2.76 0 5 2.24 5 5v70c0 2.76-2.24 5-5 5H835c-2.76 0-5-2.24-5-5z" stroke="#000" fill="#3fb8b9"/><use xlink:href="#o" transform="matrix(1,0,0,1,835,705.5) translate(5.625 38.4625)"/><use xlink:href="#p" transform="matrix(1,0,0,1,835,705.5) translate(99.47500000000001 38.4625)"/><path d="M570 705c0-2.76 2.24-5 5-5h210c2.76 0 5 2.24 5 5v70c0 2.76-2.24 5-5 5H575c-2.76 0-5-2.24-5-5z" stroke="#000" fill="#3fb8b9"/><use xlink:href="#q" transform="matrix(1,0,0,1,575,705) translate(4.424999999999997 38.4625)"/><use xlink:href="#p" transform="matrix(1,0,0,1,575,705) translate(100.675 38.4625)"/><path d="M830 925.5c0-2.76 2.24-5 5-5h210c2.76 0 5 2.24 5 5v70c0 2.76-2.24 5-5 5H835c-2.76 0-5-2.24-5-5z" stroke="#000" fill="#3fb8b9"/><use xlink:href="#o" transform="matrix(1,0,0,1,835,925.5) translate(19.650000000000006 27.525)"/><use xlink:href="#r" transform="matrix(1,0,0,1,835,925.5) translate(113.50000000000001 27.525)"/><use xlink:href="#p" transform="matrix(1,0,0,1,835,925.5) translate(52.55 49.125)"/><path d="M2580 345c0-2.76 2.24-5 5-5h210c2.76 0 5 2.24 5 5v70c0 2.76-2.24 5-5 5h-210c-2.76 0-5-2.24-5-5z" stroke="#000" fill="#3fb8b9"/><use xlink:href="#g" transform="matrix(1,0,0,1,2585,345) translate(14.074999999999989 38.4625)"/><use xlink:href="#s" transform="matrix(1,0,0,1,2585,345) translate(92.975 38.4625)"/><use xlink:href="#t" transform="matrix(1,0,0,1,2585,345) translate(130.925 38.4625)"/><use xlink:href="#f" transform="matrix(1,0,0,1,2585,345) translate(155.925 38.4625)"/><path d="M2690 338.5V295c0-2.76-2.24-5-5-5h-366.64c-2.76 0-5-2.24-5-5v-43.5" stroke="#000" stroke-width="2" fill="none"/><path d="M2691 339.5h-2v-1.03h2zM2314.36 241.53h-2v-1.03h2z"/><path d="M940 919V782" stroke="#000" stroke-width="2" fill="none"/><path d="M941 920h-2v-1.03h2zM941 782.03h-2V781h2z"/><path d="M680 698.5V655c0-2.76-2.24-5-5-5H555c-2.76 0-5-2.24-5-5v-43.5" stroke="#000" stroke-width="2" fill="none"/><path d="M681 699.5h-2v-1.03h2zM551 601.53h-2v-1.03h2z"/><path d="M940 699v-43.75c0-2.76-2.24-5-5-5H555c-2.76 0-5-2.24-5-5V601.5" stroke="#000" stroke-width="2" fill="none"/><path d="M941 700h-2v-1.03h2zM551 601.53h-2v-1.03h2z"/><path d="M2070 601.5v43.25c0 2.76 2.24 5 5 5h300c2.76 0 5 2.24 5 5V698" stroke="#000" stroke-width="2" fill="none"/><path d="M2071 601.53h-2v-1.03h2zM2381 699h-2v-1.03h2z"/><path d="M2270 704.5c0-2.76 2.24-5 5-5h210c2.76 0 5 2.24 5 5v70c0 2.76-2.24 5-5 5h-210c-2.76 0-5-2.24-5-5z" stroke="#000" fill="#3fb8b9"/><use xlink:href="#u" transform="matrix(1,0,0,1,2275,704.5) translate(32.099999999999994 38.4625)"/><use xlink:href="#p" transform="matrix(1,0,0,1,2275,704.5) translate(73 38.4625)"/><path d="M2380 781v137" stroke="#000" stroke-width="2" fill="none"/><path d="M2381 781.03h-2V780h2zM2381 919h-2v-1.03h2z"/><path d="M2270 924.5c0-2.76 2.24-5 5-5h210c2.76 0 5 2.24 5 5v70c0 2.76-2.24 5-5 5h-210c-2.76 0-5-2.24-5-5z" stroke="#000" fill="#3fb8b9"/><use xlink:href="#u" transform="matrix(1,0,0,1,2275,924.5) translate(63.599999999999994 38.4625)"/><use xlink:href="#v" transform="matrix(1,0,0,1,2275,924.5) translate(104.5 38.4625)"/><path d="M1960 705c0-2.76 2.24-5 5-5h210c2.76 0 5 2.24 5 5v70c0 2.76-2.24 5-5 5h-210c-2.76 0-5-2.24-5-5z" stroke="#000" fill="#3fb8b9"/><use xlink:href="#w" transform="matrix(1,0,0,1,1965,705) translate(17.549999999999997 38.4625)"/><use xlink:href="#p" transform="matrix(1,0,0,1,1965,705) translate(87.55 38.4625)"/><path d="M2070 698.5v-97" stroke="#000" stroke-width="2" fill="none"/><path d="M2071 699.5h-2v-1.03h2zM2071 601.53h-2v-1.03h2z"/><path d="M3486.67 525c0-2.76 2.24-5 5-5h210c2.76 0 5 2.24 5 5v70c0 2.76-2.24 5-5 5h-210c-2.76 0-5-2.24-5-5z" stroke="#000" fill="#3fb8b9"/><use xlink:href="#w" transform="matrix(1,0,0,1,3491.666666666665,525) translate(17.549999999999997 38.4625)"/><use xlink:href="#p" transform="matrix(1,0,0,1,3491.666666666665,525) translate(87.55 38.4625)"/><path d="M3896.67 421.5V465c0 2.76-2.24 5-5 5h-290c-2.76 0-5 2.24-5 5v43.5" stroke="#000" stroke-width="2" fill="none"/><path d="M3897.67 421.53h-2v-1.03h2zM3597.67 519.5h-2v-1.03h2z"/><path d="M1590 705c0-2.76 2.24-5 5-5h210c2.76 0 5 2.24 5 5v70c0 2.76-2.24 5-5 5h-210c-2.76 0-5-2.24-5-5z" stroke="#000" fill="#3fb8b9"/><use xlink:href="#x" transform="matrix(1,0,0,1,1595,705) translate(27.924999999999997 38.4625)"/><use xlink:href="#p" transform="matrix(1,0,0,1,1595,705) translate(77.175 38.4625)"/><path d="M1700 698.5V655c0-2.76 2.24-5 5-5h360c2.76 0 5-2.24 5-5v-43.5" stroke="#000" stroke-width="2" fill="none"/><path d="M1701 699.5h-2v-1.03h2zM2071 601.53h-2v-1.03h2z"/><path d="M1140 705c0-2.76 2.24-5 5-5h210c2.76 0 5 2.24 5 5v70c0 2.76-2.24 5-5 5h-210c-2.76 0-5-2.24-5-5z" stroke="#000" fill="#3fb8b9"/><use xlink:href="#y" transform="matrix(1,0,0,1,1145,705) translate(12.574999999999989 38.4625)"/><use xlink:href="#p" transform="matrix(1,0,0,1,1145,705) translate(92.52499999999999 38.4625)"/><path d="M1250 698.5V655c0-2.76 2.24-5 5-5h810c2.76 0 5-2.24 5-5v-43.5" stroke="#000" stroke-width="2" fill="none"/><path d="M1251 699.5h-2v-1.03h2zM2071 601.53h-2v-1.03h2z"/><path d="M1250 781.5v137" stroke="#000" stroke-width="2" fill="none"/><path d="M1251 781.53h-2v-1.03h2zM1251 919.5h-2v-1.03h2z"/><path d="M1140 925c0-2.76 2.24-5 5-5h210c2.76 0 5 2.24 5 5v70c0 2.76-2.24 5-5 5h-210c-2.76 0-5-2.24-5-5z" stroke="#000" fill="#3fb8b9"/><use xlink:href="#z" transform="matrix(1,0,0,1,1145,925) translate(50.599999999999994 38.4625)"/><use xlink:href="#A" transform="matrix(1,0,0,1,1145,925) translate(91.5 38.4625)"/><path d="M1742.5 924.5c0-2.76 2.24-5 5-5h210c2.76 0 5 2.24 5 5v70c0 2.76-2.24 5-5 5h-210c-2.76 0-5-2.24-5-5z" stroke="#000" fill="#3fb8b9"/><use xlink:href="#B" transform="matrix(1,0,0,1,1747.5,924.5) translate(5.099999999999994 38.4625)"/><use xlink:href="#p" transform="matrix(1,0,0,1,1747.5,924.5) translate(100 38.4625)"/><path d="M1852.5 918v-63.25c0-2.76-2.24-5-5-5H1705c-2.76 0-5-2.24-5-5V781.5" stroke="#000" stroke-width="2" fill="none"/><path d="M1853.5 919h-2v-1.03h2zM1701 781.53h-2v-1.03h2z"/><path d="M1437.5 924.5c0-2.76 2.24-5 5-5h210c2.76 0 5 2.24 5 5v70c0 2.76-2.24 5-5 5h-210c-2.76 0-5-2.24-5-5z" stroke="#000" fill="#3fb8b9"/><use xlink:href="#C" transform="matrix(1,0,0,1,1442.5,924.5) translate(36.55 27.525)"/><use xlink:href="#D" transform="matrix(1,0,0,1,1442.5,924.5) translate(92.55 27.525)"/><use xlink:href="#p" transform="matrix(1,0,0,1,1442.5,924.5) translate(52.55 49.125)"/><path d="M1547.5 918v-63.25c0-2.76 2.24-5 5-5H1695c2.76 0 5-2.24 5-5V781.5" stroke="#000" stroke-width="2" fill="none"/><path d="M1548.5 919h-2v-1.03h2zM1701 781.53h-2v-1.03h2z"/><path d="M2580 704.5c0-2.76 2.24-5 5-5h210c2.76 0 5 2.24 5 5v70c0 2.76-2.24 5-5 5h-210c-2.76 0-5-2.24-5-5z" stroke="#000" fill="#3fb8b9"/><use xlink:href="#E" transform="matrix(1,0,0,1,2585,704.5) translate(32.07499999999999 38.4625)"/><use xlink:href="#p" transform="matrix(1,0,0,1,2585,704.5) translate(73.02499999999999 38.4625)"/><path d="M2690 698v-43.25c0-2.76-2.24-5-5-5h-610c-2.76 0-5-2.24-5-5V601.5" stroke="#000" stroke-width="2" fill="none"/><path d="M2691 699h-2v-1.03h2zM2071 601.53h-2v-1.03h2z"/><path d="M2690 781v136.5" stroke="#000" stroke-width="2" fill="none"/><path d="M2691 781.03h-2V780h2zM2691 918.5h-2v-1.03h2z"/><path d="M2580 924c0-2.76 2.24-5 5-5h210c2.76 0 5 2.24 5 5v70c0 2.76-2.24 5-5 5h-210c-2.76 0-5-2.24-5-5z" stroke="#000" fill="#3fb8b9"/><use xlink:href="#z" transform="matrix(1,0,0,1,2585,924) translate(68.07499999999999 38.4625)"/><use xlink:href="#F" transform="matrix(1,0,0,1,2585,924) translate(108.975 38.4625)"/><path d="M50 705.5c0-2.76 2.24-5 5-5h210c2.76 0 5 2.24 5 5v70c0 2.76-2.24 5-5 5H55c-2.76 0-5-2.24-5-5z" stroke="#000" fill="#3fb8b9"/><use xlink:href="#G" transform="matrix(1,0,0,1,55,705.5) translate(18.599999999999994 38.4625)"/><use xlink:href="#p" transform="matrix(1,0,0,1,55,705.5) translate(86.5 38.4625)"/><path d="M160 699v-43.75c0-2.76 2.24-5 5-5h380c2.76 0 5-2.24 5-5V601.5" stroke="#000" stroke-width="2" fill="none"/><path d="M161 700h-2v-1.03h2zM551 601.53h-2v-1.03h2z"/><path d="M160 782v138" stroke="#000" stroke-width="2" fill="none"/><path d="M161 782.03h-2V781h2zM161 921h-2v-1.03h2z"/><path d="M50 926.5c0-2.76 2.24-5 5-5h210c2.76 0 5 2.24 5 5v70c0 2.76-2.24 5-5 5H55c-2.76 0-5-2.24-5-5z" stroke="#000" fill="#3fb8b9"/><use xlink:href="#H" transform="matrix(1,0,0,1,55,926.5) translate(34.599999999999994 38.4625)"/><use xlink:href="#p" transform="matrix(1,0,0,1,55,926.5) translate(70.5 38.4625)"/><path d="M310 706.57c0-2.76 2.24-5 5-5h210c2.76 0 5 2.24 5 5v70c0 2.76-2.24 5-5 5H315c-2.76 0-5-2.24-5-5z" stroke="#000" fill="#3fb8b9"/><use xlink:href="#I" transform="matrix(1,0,0,1,315,706.5697882428813) translate(17.125 38.4625)"/><use xlink:href="#p" transform="matrix(1,0,0,1,315,706.5697882428813) translate(87.97500000000001 38.4625)"/><path d="M420 700.07v-44.3c0-2.75 2.24-5 5-5h120c2.76 0 5-2.22 5-5V601.5" stroke="#000" stroke-width="2" fill="none"/><path d="M421 701.07h-2v-1.03h2zM551 601.53h-2v-1.03h2z"/><path d="M3786.67 525c0-2.76 2.24-5 5-5h210c2.76 0 5 2.24 5 5v70c0 2.76-2.24 5-5 5h-210c-2.76 0-5-2.24-5-5z" stroke="#000" fill="#3fb8b9"/><use xlink:href="#J" transform="matrix(1,0,0,1,3791.666666666665,525) translate(77.55 38.4625)"/><path d="M3186.67 525c0-2.76 2.24-5 5-5h210c2.76 0 5 2.24 5 5v70c0 2.76-2.24 5-5 5h-210c-2.76 0-5-2.24-5-5z" stroke="#000" fill="#3fb8b9"/><use xlink:href="#o" transform="matrix(1,0,0,1,3191.666666666665,525) translate(26.14999999999999 38.4625)"/><use xlink:href="#K" transform="matrix(1,0,0,1,3191.666666666665,525) translate(120 38.4625)"/><path d="M3186.67 705.5c0-2.76 2.24-5 5-5h210c2.76 0 5 2.24 5 5v70c0 2.76-2.24 5-5 5h-210c-2.76 0-5-2.24-5-5z" stroke="#000" fill="#3fb8b9"/><use xlink:href="#L" transform="matrix(1,0,0,1,3191.666666666665,705.5) translate(59.074999999999996 38.4625)"/><use xlink:href="#v" transform="matrix(1,0,0,1,3191.666666666665,705.5) translate(109.025 38.4625)"/><path d="M4086.67 525c0-2.76 2.24-5 5-5h210c2.76 0 5 2.24 5 5v70c0 2.76-2.24 5-5 5h-210c-2.76 0-5-2.24-5-5z" stroke="#000" fill="#3fb8b9"/><use xlink:href="#M" transform="matrix(1,0,0,1,4091.666666666666,525) translate(77.5 38.4625)"/><path d="M3483.33 704.5c0-2.76 2.24-5 5-5h210c2.76 0 5 2.24 5 5v70c0 2.76-2.24 5-5 5h-210c-2.76 0-5-2.24-5-5z" stroke="#000" fill="#3fb8b9"/><g><use xlink:href="#N" transform="matrix(1,0,0,1,3488.3333333333303,704.5) translate(48.05 38.4625)"/><use xlink:href="#O" transform="matrix(1,0,0,1,3488.3333333333303,704.5) translate(108.95 38.4625)"/></g><path d="M2890 706.57c0-2.76 2.24-5 5-5h210c2.76 0 5 2.24 5 5v70c0 2.76-2.24 5-5 5h-210c-2.76 0-5-2.24-5-5z" stroke="#000" fill="#3fb8b9"/><g><use xlink:href="#M" transform="matrix(1,0,0,1,2895,706.5697882428813) translate(77.5 38.4625)"/></g><path d="M3000 700.07v-44.3c0-2.75-2.24-5-5-5h-920c-2.76 0-5-2.22-5-5V601.5" stroke="#000" stroke-width="2" fill="none"/><path d="M3001 701.07h-2v-1.03h2zM2071 601.53h-2v-1.03h2z"/><path d="M3593.33 698v-43.25c0-2.76-2.24-5-5-5h-286.66c-2.76 0-5-2.24-5-5V601.5" stroke="#000" stroke-width="2" fill="none"/><path d="M3594.33 699h-2v-1.03h2zM3297.67 601.53h-2v-1.03h2z"/><path d="M3296.67 699v-97.5" stroke="#000" stroke-width="2" fill="none"/><path d="M3297.67 700h-2v-1.03h2zM3297.67 601.53h-2v-1.03h2z"/><path d="M4196.67 518.5V475c0-2.76-2.24-5-5-5h-290c-2.76 0-5-2.24-5-5v-43.5" stroke="#000" stroke-width="2" fill="none"/><path d="M4197.67 519.5h-2v-1.03h2zM3897.67 421.53h-2v-1.03h2z"/><path d="M3896.67 518.5v-97" stroke="#000" stroke-width="2" fill="none"/><path d="M3897.67 519.5h-2v-1.03h2zM3897.67 421.53h-2v-1.03h2z"/><path d="M3296.67 518.5V475c0-2.76 2.24-5 5-5h590c2.76 0 5-2.24 5-5v-43.5" stroke="#000" stroke-width="2" fill="none"/><path d="M3297.67 519.5h-2v-1.03h2zM3897.67 421.53h-2v-1.03h2z"/><path d="M4386.67 525c0-2.76 2.24-5 5-5h210c2.76 0 5 2.24 5 5v70c0 2.76-2.24 5-5 5h-210c-2.76 0-5-2.24-5-5z" stroke="#000" fill="#3fb8b9"/><g><use xlink:href="#P" transform="matrix(1,0,0,1,4391.666666666666,525) translate(1.5999999999999943 38.4625)"/><use xlink:href="#Q" transform="matrix(1,0,0,1,4391.666666666666,525) translate(63.55 38.4625)"/><use xlink:href="#p" transform="matrix(1,0,0,1,4391.666666666666,525) translate(103.5 38.4625)"/></g><path d="M4496.67 518.5V475c0-2.76-2.24-5-5-5h-590c-2.76 0-5-2.24-5-5v-43.5" stroke="#000" stroke-width="2" fill="none"/><path d="M4497.67 519.5h-2v-1.03h2zM3897.67 421.53h-2v-1.03h2z"/><path d="M2195.04 345c0-2.76 2.24-5 5-5h226.64c2.76 0 5 2.24 5 5v70c0 2.76-2.24 5-5 5h-226.64c-2.76 0-5-2.24-5-5z" stroke="#000" fill="#3fb8b9"/><g><use xlink:href="#R" transform="matrix(1,0,0,1,2200.0407663865026,345) translate(6.8999999999999915 38.4625)"/><use xlink:href="#S" transform="matrix(1,0,0,1,2200.0407663865026,345) translate(76.2 38.4625)"/><use xlink:href="#f" transform="matrix(1,0,0,1,2200.0407663865026,345) translate(180.10000000000002 38.4625)"/></g><path d="M2313.36 338.5v-97" stroke="#000" stroke-width="2" fill="none"/><path d="M2314.36 339.5h-2v-1.03h2zM2314.36 241.53h-2v-1.03h2z"/><path d="M440 825c0-2.76 2.24-5 5-5h210c2.76 0 5 2.24 5 5v70c0 2.76-2.24 5-5 5H445c-2.76 0-5-2.24-5-5z" stroke="#000" fill="#3fb8b9"/><g><use xlink:href="#T" transform="matrix(1,0,0,1,445,825) translate(17.549999999999997 38.4625)"/><use xlink:href="#U" transform="matrix(1,0,0,1,445,825) translate(87.55 38.4625)"/></g><path d="M550 818.5v-217" stroke="#000" stroke-width="2" fill="none"/><path d="M551 819.5h-2v-1.03h2zM551 601.53h-2v-1.03h2z"/><defs><path fill="#333" d="M275 0h-61l-44-196L126 0H64L0-248h53L97-49l45-199h58l43 199 44-199h52" id="V"/><path fill="#333" d="M185-48c-13 30-37 53-82 52C43 2 14-33 14-96s30-98 90-98c62 0 83 45 84 108H66c0 31 8 55 39 56 18 0 30-7 34-22zm-45-69c5-46-57-63-70-21-2 6-4 13-4 21h74" id="W"/><path fill="#333" d="M135-194c52 0 70 43 70 98 0 56-19 99-73 100-30 1-46-15-58-35L72 0H24l1-261h50v104c11-23 29-37 60-37zM114-30c31 0 40-27 40-66 0-37-7-63-39-63s-41 28-41 65c0 36 8 64 40 64" id="X"/><path fill="#333" d="M137-138c1-29-70-34-71-4 15 46 118 7 119 86 1 83-164 76-172 9l43-7c4 19 20 25 44 25 33 8 57-30 24-41C81-84 22-81 20-136c-2-80 154-74 161-7" id="Y"/><path fill="#333" d="M25-224v-37h50v37H25zM25 0v-190h50V0H25" id="Z"/><path fill="#333" d="M115-3C79 11 28 4 28-45v-112H4v-33h27l15-45h31v45h36v33H77v99c-1 23 16 31 38 25v30" id="aa"/><g id="a"><use transform="matrix(0.14814814814814817,0,0,0.14814814814814817,0,0)" xlink:href="#V"/><use transform="matrix(0.14814814814814817,0,0,0.14814814814814817,49.18518518518519,0)" xlink:href="#W"/><use transform="matrix(0.14814814814814817,0,0,0.14814814814814817,78.81481481481482,0)" xlink:href="#X"/><use transform="matrix(0.14814814814814817,0,0,0.14814814814814817,111.25925925925928,0)" xlink:href="#Y"/><use transform="matrix(0.14814814814814817,0,0,0.14814814814814817,140.8888888888889,0)" xlink:href="#Z"/><use transform="matrix(0.14814814814814817,0,0,0.14814814814814817,155.70370370370372,0)" xlink:href="#aa"/><use transform="matrix(0.14814814814814817,0,0,0.14814814814814817,173.33333333333334,0)" xlink:href="#W"/></g><path fill="#333" d="M133-34C117-15 103 5 69 4 32 3 11-16 11-54c-1-60 55-63 116-61 1-26-3-47-28-47-18 1-26 9-28 27l-52-2c7-38 36-58 82-57s74 22 75 68l1 82c-1 14 12 18 25 15v27c-30 8-71 5-69-32zm-48 3c29 0 43-24 42-57-32 0-66-3-65 30 0 17 8 27 23 27" id="ab"/><path fill="#333" d="M135-150c-39-12-60 13-60 57V0H25l-1-190h47c2 13-1 29 3 40 6-28 27-53 61-41v41" id="ac"/><path fill="#333" d="M190-63c-7 42-38 67-86 67-59 0-84-38-90-98-12-110 154-137 174-36l-49 2c-2-19-15-32-35-32-30 0-35 28-38 64-6 74 65 87 74 30" id="ad"/><path fill="#333" d="M114-157C55-157 80-60 75 0H25v-261h50l-1 109c12-26 28-41 61-42 86-1 58 113 63 194h-50c-7-57 23-157-34-157" id="ae"/><path fill="#333" d="M85 4C-2 5 27-109 22-190h50c7 57-23 150 33 157 60-5 35-97 40-157h50l1 190h-47c-2-12 1-28-3-38-12 25-28 42-61 42" id="af"/><g id="b"><use transform="matrix(0.14814814814814817,0,0,0.14814814814814817,0,0)" xlink:href="#ab"/><use transform="matrix(0.14814814814814817,0,0,0.14814814814814817,29.629629629629633,0)" xlink:href="#ac"/><use transform="matrix(0.14814814814814817,0,0,0.14814814814814817,50.370370370370374,0)" xlink:href="#ad"/><use transform="matrix(0.14814814814814817,0,0,0.14814814814814817,80.00000000000001,0)" xlink:href="#ae"/><use transform="matrix(0.14814814814814817,0,0,0.14814814814814817,112.44444444444446,0)" xlink:href="#Z"/><use transform="matrix(0.14814814814814817,0,0,0.14814814814814817,127.25925925925925,0)" xlink:href="#aa"/><use transform="matrix(0.14814814814814817,0,0,0.14814814814814817,144.8888888888889,0)" xlink:href="#W"/><use transform="matrix(0.14814814814814817,0,0,0.14814814814814817,174.51851851851853,0)" xlink:href="#ad"/><use transform="matrix(0.14814814814814817,0,0,0.14814814814814817,204.14814814814815,0)" xlink:href="#aa"/><use transform="matrix(0.14814814814814817,0,0,0.14814814814814817,221.77777777777777,0)" xlink:href="#af"/><use transform="matrix(0.14814814814814817,0,0,0.14814814814814817,254.22222222222223,0)" xlink:href="#ac"/><use transform="matrix(0.14814814814814817,0,0,0.14814814814814817,274.962962962963,0)" xlink:href="#W"/></g><path fill="#fff" d="M186 0v-106H76V0H24v-248h52v99h110v-99h50V0h-50" id="ag"/><path fill="#fff" d="M110-194c64 0 96 36 96 99 0 64-35 99-97 99-61 0-95-36-95-99 0-62 34-99 96-99zm-1 164c35 0 45-28 45-65 0-40-10-65-43-65-34 0-45 26-45 65 0 36 10 65 43 65" id="ah"/><path fill="#fff" d="M220-157c-53 9-28 100-34 157h-49v-107c1-27-5-49-29-50C55-147 81-57 75 0H25l-1-190h47c2 12-1 28 3 38 10-53 101-56 108 0 13-22 24-43 59-42 82 1 51 116 57 194h-49v-107c-1-25-5-48-29-50" id="ai"/><path fill="#fff" d="M185-48c-13 30-37 53-82 52C43 2 14-33 14-96s30-98 90-98c62 0 83 45 84 108H66c0 31 8 55 39 56 18 0 30-7 34-22zm-45-69c5-46-57-63-70-21-2 6-4 13-4 21h74" id="aj"/><path fill="#fff" d="M135-194c53 0 70 44 70 98 0 56-19 98-73 100-31 1-45-17-59-34 3 33 2 69 2 105H25l-1-265h48c2 10 0 23 3 31 11-24 29-35 60-35zM114-30c33 0 39-31 40-66 0-38-9-64-40-64-56 0-55 130 0 130" id="ak"/><path fill="#fff" d="M133-34C117-15 103 5 69 4 32 3 11-16 11-54c-1-60 55-63 116-61 1-26-3-47-28-47-18 1-26 9-28 27l-52-2c7-38 36-58 82-57s74 22 75 68l1 82c-1 14 12 18 25 15v27c-30 8-71 5-69-32zm-48 3c29 0 43-24 42-57-32 0-66-3-65 30 0 17 8 27 23 27" id="al"/><path fill="#fff" d="M195-6C206 82 75 100 31 46c-4-6-6-13-8-21l49-6c3 16 16 24 34 25 40 0 42-37 40-79-11 22-30 35-61 35-53 0-70-43-70-97 0-56 18-96 73-97 30 0 46 14 59 34l2-30h47zm-90-29c32 0 41-27 41-63 0-35-9-62-40-62-32 0-39 29-40 63 0 36 9 62 39 62" id="am"/><g id="c"><use transform="matrix(0.05,0,0,0.05,0,0)" xlink:href="#ag"/><use transform="matrix(0.05,0,0,0.05,12.950000000000001,0)" xlink:href="#ah"/><use transform="matrix(0.05,0,0,0.05,23.900000000000002,0)" xlink:href="#ai"/><use transform="matrix(0.05,0,0,0.05,39.900000000000006,0)" xlink:href="#aj"/><use transform="matrix(0.05,0,0,0.05,49.900000000000006,0)" xlink:href="#ak"/><use transform="matrix(0.05,0,0,0.05,60.85,0)" xlink:href="#al"/><use transform="matrix(0.05,0,0,0.05,70.85000000000001,0)" xlink:href="#am"/><use transform="matrix(0.05,0,0,0.05,81.80000000000001,0)" xlink:href="#aj"/></g><path fill="#fff" d="M101-234c-31-9-42 10-38 44h38v23H63V0H32v-167H5v-23h27c-7-52 17-82 69-68v24" id="an"/><path fill="#fff" d="M114-163C36-179 61-72 57 0H25l-1-190h30c1 12-1 29 2 39 6-27 23-49 58-41v29" id="ao"/><path fill="#fff" d="M141-36C126-15 110 5 73 4 37 3 15-17 15-53c-1-64 63-63 125-63 3-35-9-54-41-54-24 1-41 7-42 31l-33-3c5-37 33-52 76-52 45 0 72 20 72 64v82c-1 20 7 32 28 27v20c-31 9-61-2-59-35zM48-53c0 20 12 33 32 33 41-3 63-29 60-74-43 2-92-5-92 41" id="ap"/><path fill="#fff" d="M117-194c89-4 53 116 60 194h-32v-121c0-31-8-49-39-48C34-167 62-67 57 0H25l-1-190h30c1 10-1 24 2 32 11-22 29-35 61-36" id="aq"/><path fill="#fff" d="M96-169c-40 0-48 33-48 73s9 75 48 75c24 0 41-14 43-38l32 2c-6 37-31 61-74 61-59 0-76-41-82-99-10-93 101-131 147-64 4 7 5 14 7 22l-32 3c-4-21-16-35-41-35" id="ar"/><path fill="#fff" d="M106-169C34-169 62-67 57 0H25v-261h32l-1 103c12-21 28-36 61-36 89 0 53 116 60 194h-32v-121c2-32-8-49-39-48" id="as"/><path fill="#fff" d="M24-231v-30h32v30H24zM24 0v-190h32V0H24" id="at"/><path fill="#fff" d="M135-143c-3-34-86-38-87 0 15 53 115 12 119 90S17 21 10-45l28-5c4 36 97 45 98 0-10-56-113-15-118-90-4-57 82-63 122-42 12 7 21 19 24 35" id="au"/><path fill="#fff" d="M100-194c63 0 86 42 84 106H49c0 40 14 67 53 68 26 1 43-12 49-29l28 8c-11 28-37 45-77 45C44 4 14-33 15-96c1-61 26-98 85-98zm52 81c6-60-76-77-97-28-3 7-6 17-6 28h103" id="av"/><g id="d"><use transform="matrix(0.05,0,0,0.05,0,0)" xlink:href="#an"/><use transform="matrix(0.05,0,0,0.05,5,0)" xlink:href="#ao"/><use transform="matrix(0.05,0,0,0.05,10.95,0)" xlink:href="#ap"/><use transform="matrix(0.05,0,0,0.05,20.95,0)" xlink:href="#aq"/><use transform="matrix(0.05,0,0,0.05,30.950000000000003,0)" xlink:href="#ar"/><use transform="matrix(0.05,0,0,0.05,39.95,0)" xlink:href="#as"/><use transform="matrix(0.05,0,0,0.05,49.95,0)" xlink:href="#at"/><use transform="matrix(0.05,0,0,0.05,53.900000000000006,0)" xlink:href="#au"/><use transform="matrix(0.05,0,0,0.05,62.900000000000006,0)" xlink:href="#av"/><use transform="matrix(0.05,0,0,0.05,72.9,0)" xlink:href="#av"/></g><path fill="#fff" d="M24 0v-261h32V0H24" id="aw"/><path fill="#fff" d="M100-194c62-1 85 37 85 99 1 63-27 99-86 99S16-35 15-95c0-66 28-99 85-99zM99-20c44 1 53-31 53-75 0-43-8-75-51-75s-53 32-53 75 10 74 51 75" id="ax"/><path fill="#fff" d="M177-190C167-65 218 103 67 71c-23-6-38-20-44-43l32-5c15 47 100 32 89-28v-30C133-14 115 1 83 1 29 1 15-40 15-95c0-56 16-97 71-98 29-1 48 16 59 35 1-10 0-23 2-32h30zM94-22c36 0 50-32 50-73 0-42-14-75-50-75-39 0-46 34-46 75s6 73 46 73" id="ay"/><g id="e"><use transform="matrix(0.05,0,0,0.05,0,0)" xlink:href="#aw"/><use transform="matrix(0.05,0,0,0.05,3.95,0)" xlink:href="#ax"/><use transform="matrix(0.05,0,0,0.05,13.949999999999998,0)" xlink:href="#ay"/><use transform="matrix(0.05,0,0,0.05,23.95,0)" xlink:href="#at"/><use transform="matrix(0.05,0,0,0.05,27.899999999999995,0)" xlink:href="#aq"/></g><path fill="#fff" d="M115-194c55 1 70 41 70 98S169 2 115 4C84 4 66-9 55-30l1 105H24l-1-265h31l2 30c10-21 28-34 59-34zm-8 174c40 0 45-34 45-75s-6-73-45-74c-42 0-51 32-51 76 0 43 10 73 51 73" id="az"/><g id="f"><use transform="matrix(0.05,0,0,0.05,0,0)" xlink:href="#az"/><use transform="matrix(0.05,0,0,0.05,10,0)" xlink:href="#ap"/><use transform="matrix(0.05,0,0,0.05,20,0)" xlink:href="#ay"/><use transform="matrix(0.05,0,0,0.05,30,0)" xlink:href="#av"/></g><path fill="#fff" d="M84 4C-5 8 30-112 23-190h32v120c0 31 7 50 39 49 72-2 45-101 50-169h31l1 190h-30c-1-10 1-25-2-33-11 22-28 36-60 37" id="aA"/><path fill="#fff" d="M59-47c-2 24 18 29 38 22v24C64 9 27 4 27-40v-127H5v-23h24l9-43h21v43h35v23H59v120" id="aB"/><path fill="#fff" d="M210-169c-67 3-38 105-44 169h-31v-121c0-29-5-50-35-48C34-165 62-65 56 0H25l-1-190h30c1 10-1 24 2 32 10-44 99-50 107 0 11-21 27-35 58-36 85-2 47 119 55 194h-31v-121c0-29-5-49-35-48" id="aC"/><g id="g"><use transform="matrix(0.05,0,0,0.05,0,0)" xlink:href="#ar"/><use transform="matrix(0.05,0,0,0.05,9,0)" xlink:href="#aA"/><use transform="matrix(0.05,0,0,0.05,19,0)" xlink:href="#au"/><use transform="matrix(0.05,0,0,0.05,28,0)" xlink:href="#aB"/><use transform="matrix(0.05,0,0,0.05,33,0)" xlink:href="#ax"/><use transform="matrix(0.05,0,0,0.05,43,0)" xlink:href="#aC"/><use transform="matrix(0.05,0,0,0.05,57.95,0)" xlink:href="#av"/><use transform="matrix(0.05,0,0,0.05,67.95,0)" xlink:href="#ao"/></g><path fill="#fff" d="M33 0v-248h34V0H33" id="aD"/><g id="h"><use transform="matrix(0.05,0,0,0.05,0,0)" xlink:href="#aD"/><use transform="matrix(0.05,0,0,0.05,5,0)" xlink:href="#an"/><path fill="#fff" d="M-.9 1.25h16.8v1.32H-.9z"/></g><path fill="#fff" d="M85-194c31 0 48 13 60 33l-1-100h32l1 261h-30c-2-10 0-23-3-31C134-8 116 4 85 4 32 4 16-35 15-94c0-66 23-100 70-100zm9 24c-40 0-46 34-46 75 0 40 6 74 45 74 42 0 51-32 51-76 0-42-9-74-50-73" id="aE"/><g id="i"><use transform="matrix(0.05,0,0,0.05,0,0)" xlink:href="#ap"/><use transform="matrix(0.05,0,0,0.05,10,0)" xlink:href="#aE"/><use transform="matrix(0.05,0,0,0.05,20,0)" xlink:href="#aC"/><use transform="matrix(0.05,0,0,0.05,34.95,0)" xlink:href="#at"/><use transform="matrix(0.05,0,0,0.05,38.900000000000006,0)" xlink:href="#aq"/><use transform="matrix(0.05,0,0,0.05,48.900000000000006,0)" xlink:href="#at"/><use transform="matrix(0.05,0,0,0.05,52.85,0)" xlink:href="#au"/><use transform="matrix(0.05,0,0,0.05,61.85,0)" xlink:href="#aB"/><use transform="matrix(0.05,0,0,0.05,66.85000000000001,0)" xlink:href="#ao"/><use transform="matrix(0.05,0,0,0.05,72.80000000000001,0)" xlink:href="#ap"/><use transform="matrix(0.05,0,0,0.05,82.80000000000001,0)" xlink:href="#aB"/><use transform="matrix(0.05,0,0,0.05,87.80000000000001,0)" xlink:href="#ax"/><use transform="matrix(0.05,0,0,0.05,97.80000000000001,0)" xlink:href="#ao"/><path fill="#fff" d="M-.9 1.25h110.55v1.32H-.9z"/></g><path fill="#fff" d="M33-154v-36h34v36H33zM33 0v-36h34V0H33" id="aF"/><g id="j"><use transform="matrix(0.05,0,0,0.05,0,0)" xlink:href="#aF"/><path fill="#fff" d="M-.9 1.25h6.8v1.32H-.9z"/></g><path fill="#fff" d="M205 0l-28-72H64L36 0H1l101-248h38L239 0h-34zm-38-99l-47-123c-12 45-31 82-46 123h93" id="aG"/><g id="k"><use transform="matrix(0.05,0,0,0.05,0,0)" xlink:href="#aG"/><use transform="matrix(0.05,0,0,0.05,12,0)" xlink:href="#aE"/><use transform="matrix(0.05,0,0,0.05,22,0)" xlink:href="#aC"/><use transform="matrix(0.05,0,0,0.05,36.95,0)" xlink:href="#at"/><use transform="matrix(0.05,0,0,0.05,40.900000000000006,0)" xlink:href="#aq"/></g><g id="l"><use transform="matrix(0.05,0,0,0.05,0,0)" xlink:href="#as"/><use transform="matrix(0.05,0,0,0.05,10,0)" xlink:href="#ax"/><use transform="matrix(0.05,0,0,0.05,20,0)" xlink:href="#aC"/><use transform="matrix(0.05,0,0,0.05,34.95,0)" xlink:href="#av"/><use transform="matrix(0.05,0,0,0.05,44.95,0)" xlink:href="#az"/><use transform="matrix(0.05,0,0,0.05,54.95,0)" xlink:href="#ap"/><use transform="matrix(0.05,0,0,0.05,64.95,0)" xlink:href="#ay"/><use transform="matrix(0.05,0,0,0.05,74.95,0)" xlink:href="#av"/></g><g id="m"><use transform="matrix(0.05,0,0,0.05,0,0)" xlink:href="#an"/><use transform="matrix(0.05,0,0,0.05,5,0)" xlink:href="#ao"/><use transform="matrix(0.05,0,0,0.05,10.95,0)" xlink:href="#ap"/><use transform="matrix(0.05,0,0,0.05,20.95,0)" xlink:href="#aq"/><use transform="matrix(0.05,0,0,0.05,30.950000000000003,0)" xlink:href="#ar"/><use transform="matrix(0.05,0,0,0.05,39.95,0)" xlink:href="#as"/><use transform="matrix(0.05,0,0,0.05,49.95,0)" xlink:href="#at"/><use transform="matrix(0.05,0,0,0.05,53.900000000000006,0)" xlink:href="#au"/><use transform="matrix(0.05,0,0,0.05,62.900000000000006,0)" xlink:href="#av"/><use transform="matrix(0.05,0,0,0.05,72.9,0)" xlink:href="#av"/><path fill="#fff" d="M-.9 1.25h89.7v1.32H-.9z"/></g><path fill="#fff" d="M63-220v92h138v28H63V0H30v-248h175v28H63" id="aH"/><g id="n"><use transform="matrix(0.05,0,0,0.05,0,0)" xlink:href="#aH"/><use transform="matrix(0.05,0,0,0.05,10.950000000000001,0)" xlink:href="#ao"/><use transform="matrix(0.05,0,0,0.05,16.900000000000002,0)" xlink:href="#ap"/><use transform="matrix(0.05,0,0,0.05,26.900000000000002,0)" xlink:href="#aq"/><use transform="matrix(0.05,0,0,0.05,36.900000000000006,0)" xlink:href="#ar"/><use transform="matrix(0.05,0,0,0.05,45.900000000000006,0)" xlink:href="#as"/><use transform="matrix(0.05,0,0,0.05,55.900000000000006,0)" xlink:href="#at"/><use transform="matrix(0.05,0,0,0.05,59.85,0)" xlink:href="#au"/><use transform="matrix(0.05,0,0,0.05,68.85000000000001,0)" xlink:href="#av"/><use transform="matrix(0.05,0,0,0.05,78.85000000000001,0)" xlink:href="#av"/></g><g id="o"><use transform="matrix(0.05,0,0,0.05,0,0)" xlink:href="#aH"/><use transform="matrix(0.05,0,0,0.05,10.950000000000001,0)" xlink:href="#ao"/><use transform="matrix(0.05,0,0,0.05,16.900000000000002,0)" xlink:href="#ap"/><use transform="matrix(0.05,0,0,0.05,26.900000000000002,0)" xlink:href="#aq"/><use transform="matrix(0.05,0,0,0.05,36.900000000000006,0)" xlink:href="#ar"/><use transform="matrix(0.05,0,0,0.05,45.900000000000006,0)" xlink:href="#as"/><use transform="matrix(0.05,0,0,0.05,55.900000000000006,0)" xlink:href="#at"/><use transform="matrix(0.05,0,0,0.05,59.85,0)" xlink:href="#au"/><use transform="matrix(0.05,0,0,0.05,68.85000000000001,0)" xlink:href="#av"/><use transform="matrix(0.05,0,0,0.05,78.85000000000001,0)" xlink:href="#av"/></g><g id="p"><use transform="matrix(0.05,0,0,0.05,0,0)" xlink:href="#aC"/><use transform="matrix(0.05,0,0,0.05,14.950000000000001,0)" xlink:href="#ap"/><use transform="matrix(0.05,0,0,0.05,24.950000000000003,0)" xlink:href="#aq"/><use transform="matrix(0.05,0,0,0.05,34.95,0)" xlink:href="#ap"/><use transform="matrix(0.05,0,0,0.05,44.95,0)" xlink:href="#ay"/><use transform="matrix(0.05,0,0,0.05,54.95,0)" xlink:href="#av"/><use transform="matrix(0.05,0,0,0.05,64.95,0)" xlink:href="#aC"/><use transform="matrix(0.05,0,0,0.05,79.9,0)" xlink:href="#av"/><use transform="matrix(0.05,0,0,0.05,89.9,0)" xlink:href="#aq"/><use transform="matrix(0.05,0,0,0.05,99.9,0)" xlink:href="#aB"/></g><path fill="#fff" d="M266 0h-40l-56-210L115 0H75L2-248h35L96-30l15-64 43-154h32l59 218 59-218h35" id="aI"/><g id="q"><use transform="matrix(0.05,0,0,0.05,0,0)" xlink:href="#aI"/><use transform="matrix(0.05,0,0,0.05,16.3,0)" xlink:href="#ap"/><use transform="matrix(0.05,0,0,0.05,26.3,0)" xlink:href="#ao"/><use transform="matrix(0.05,0,0,0.05,32.25,0)" xlink:href="#av"/><use transform="matrix(0.05,0,0,0.05,42.25,0)" xlink:href="#as"/><use transform="matrix(0.05,0,0,0.05,52.25,0)" xlink:href="#ax"/><use transform="matrix(0.05,0,0,0.05,62.25,0)" xlink:href="#aA"/><use transform="matrix(0.05,0,0,0.05,72.25,0)" xlink:href="#au"/><use transform="matrix(0.05,0,0,0.05,81.25,0)" xlink:href="#av"/></g><path fill="#fff" d="M115-194c53 0 69 39 70 98 0 66-23 100-70 100C84 3 66-7 56-30L54 0H23l1-261h32v101c10-23 28-34 59-34zm-8 174c40 0 45-34 45-75 0-40-5-75-45-74-42 0-51 32-51 76 0 43 10 73 51 73" id="aJ"/><g id="r"><use transform="matrix(0.05,0,0,0.05,0,0)" xlink:href="#ax"/><use transform="matrix(0.05,0,0,0.05,10,0)" xlink:href="#aJ"/><use transform="matrix(0.05,0,0,0.05,20,0)" xlink:href="#aw"/><use transform="matrix(0.05,0,0,0.05,23.95,0)" xlink:href="#at"/><use transform="matrix(0.05,0,0,0.05,27.899999999999995,0)" xlink:href="#ay"/><use transform="matrix(0.05,0,0,0.05,37.9,0)" xlink:href="#ap"/><use transform="matrix(0.05,0,0,0.05,47.9,0)" xlink:href="#aB"/><use transform="matrix(0.05,0,0,0.05,52.900000000000006,0)" xlink:href="#at"/><use transform="matrix(0.05,0,0,0.05,56.85,0)" xlink:href="#ax"/><use transform="matrix(0.05,0,0,0.05,66.85,0)" xlink:href="#aq"/></g><g id="s"><use transform="matrix(0.05,0,0,0.05,0,0)" xlink:href="#au"/><use transform="matrix(0.05,0,0,0.05,9,0)" xlink:href="#at"/><use transform="matrix(0.05,0,0,0.05,12.949999999999998,0)" xlink:href="#ay"/><use transform="matrix(0.05,0,0,0.05,22.95,0)" xlink:href="#aq"/></g><g id="t"><use transform="matrix(0.05,0,0,0.05,0,0)" xlink:href="#aA"/><use transform="matrix(0.05,0,0,0.05,10,0)" xlink:href="#az"/></g><path fill="#fff" d="M30-248c118-7 216 8 213 122C240-48 200 0 122 0H30v-248zM63-27c89 8 146-16 146-99s-60-101-146-95v194" id="aK"/><g id="u"><use transform="matrix(0.05,0,0,0.05,0,0)" xlink:href="#aK"/><use transform="matrix(0.05,0,0,0.05,12.950000000000001,0)" xlink:href="#at"/><use transform="matrix(0.05,0,0,0.05,16.900000000000002,0)" xlink:href="#au"/><use transform="matrix(0.05,0,0,0.05,25.900000000000002,0)" xlink:href="#as"/></g><g id="v"><use transform="matrix(0.05,0,0,0.05,0,0)" xlink:href="#ax"/><use transform="matrix(0.05,0,0,0.05,10,0)" xlink:href="#ao"/><use transform="matrix(0.05,0,0,0.05,15.949999999999998,0)" xlink:href="#aE"/><use transform="matrix(0.05,0,0,0.05,25.950000000000003,0)" xlink:href="#av"/><use transform="matrix(0.05,0,0,0.05,35.95,0)" xlink:href="#ao"/></g><g id="w"><use transform="matrix(0.05,0,0,0.05,0,0)" xlink:href="#aG"/><use transform="matrix(0.05,0,0,0.05,12,0)" xlink:href="#ar"/><use transform="matrix(0.05,0,0,0.05,21,0)" xlink:href="#ar"/><use transform="matrix(0.05,0,0,0.05,30,0)" xlink:href="#ax"/><use transform="matrix(0.05,0,0,0.05,40,0)" xlink:href="#aA"/><use transform="matrix(0.05,0,0,0.05,50,0)" xlink:href="#aq"/><use transform="matrix(0.05,0,0,0.05,60,0)" xlink:href="#aB"/></g><path fill="#fff" d="M127-220V0H93v-220H8v-28h204v28h-85" id="aL"/><path fill="#fff" d="M143 0L79-87 56-68V0H24v-261h32v163l83-92h37l-77 82L181 0h-38" id="aM"/><g id="x"><use transform="matrix(0.05,0,0,0.05,0,0)" xlink:href="#aL"/><use transform="matrix(0.05,0,0,0.05,10.3,0)" xlink:href="#ao"/><use transform="matrix(0.05,0,0,0.05,16.25,0)" xlink:href="#aA"/><use transform="matrix(0.05,0,0,0.05,26.25,0)" xlink:href="#ar"/><use transform="matrix(0.05,0,0,0.05,35.25,0)" xlink:href="#aM"/></g><path fill="#fff" d="M185-189c-5-48-123-54-124 2 14 75 158 14 163 119 3 78-121 87-175 55-17-10-28-26-33-46l33-7c5 56 141 63 141-1 0-78-155-14-162-118-5-82 145-84 179-34 5 7 8 16 11 25" id="aN"/><g id="y"><use transform="matrix(0.05,0,0,0.05,0,0)" xlink:href="#aN"/><use transform="matrix(0.05,0,0,0.05,12,0)" xlink:href="#ar"/><use transform="matrix(0.05,0,0,0.05,21,0)" xlink:href="#as"/><use transform="matrix(0.05,0,0,0.05,31,0)" xlink:href="#av"/><use transform="matrix(0.05,0,0,0.05,41,0)" xlink:href="#aE"/><use transform="matrix(0.05,0,0,0.05,51,0)" xlink:href="#aA"/><use transform="matrix(0.05,0,0,0.05,61,0)" xlink:href="#aw"/><use transform="matrix(0.05,0,0,0.05,64.95,0)" xlink:href="#av"/></g><path fill="#fff" d="M190 0L58-211 59 0H30v-248h39L202-35l-2-213h31V0h-41" id="aO"/><path fill="#fff" d="M206 0h-36l-40-164L89 0H53L-1-190h32L70-26l43-164h34l41 164 42-164h31" id="aP"/><g id="z"><use transform="matrix(0.05,0,0,0.05,0,0)" xlink:href="#aO"/><use transform="matrix(0.05,0,0,0.05,12.950000000000001,0)" xlink:href="#av"/><use transform="matrix(0.05,0,0,0.05,22.950000000000003,0)" xlink:href="#aP"/></g><g id="A"><use transform="matrix(0.05,0,0,0.05,0,0)" xlink:href="#az"/><use transform="matrix(0.05,0,0,0.05,10,0)" xlink:href="#aw"/><use transform="matrix(0.05,0,0,0.05,13.949999999999998,0)" xlink:href="#ap"/><use transform="matrix(0.05,0,0,0.05,23.95,0)" xlink:href="#aq"/><use transform="matrix(0.05,0,0,0.05,33.95,0)" xlink:href="#aq"/><use transform="matrix(0.05,0,0,0.05,43.95,0)" xlink:href="#at"/><use transform="matrix(0.05,0,0,0.05,47.900000000000006,0)" xlink:href="#aq"/><use transform="matrix(0.05,0,0,0.05,57.900000000000006,0)" xlink:href="#ay"/></g><path fill="#fff" d="M160-131c35 5 61 23 61 61C221 17 115-2 30 0v-248c76 3 177-17 177 60 0 33-19 50-47 57zm-97-11c50-1 110 9 110-42 0-47-63-36-110-37v79zm0 115c55-2 124 14 124-45 0-56-70-42-124-44v89" id="aQ"/><g id="B"><use transform="matrix(0.05,0,0,0.05,0,0)" xlink:href="#aQ"/><use transform="matrix(0.05,0,0,0.05,12,0)" xlink:href="#ao"/><use transform="matrix(0.05,0,0,0.05,17.95,0)" xlink:href="#av"/><use transform="matrix(0.05,0,0,0.05,27.950000000000003,0)" xlink:href="#ap"/><use transform="matrix(0.05,0,0,0.05,37.95,0)" xlink:href="#aM"/><use transform="matrix(0.05,0,0,0.05,46.95,0)" xlink:href="#aE"/><use transform="matrix(0.05,0,0,0.05,56.95,0)" xlink:href="#ax"/><use transform="matrix(0.05,0,0,0.05,66.95,0)" xlink:href="#aP"/><use transform="matrix(0.05,0,0,0.05,79.9,0)" xlink:href="#aq"/></g><path fill="#fff" d="M179-190L93 31C79 59 56 82 12 73V49c39 6 53-20 64-50L1-190h34L92-34l54-156h33" id="aR"/><g id="C"><use transform="matrix(0.05,0,0,0.05,0,0)" xlink:href="#aN"/><use transform="matrix(0.05,0,0,0.05,12,0)" xlink:href="#ap"/><use transform="matrix(0.05,0,0,0.05,22,0)" xlink:href="#an"/><use transform="matrix(0.05,0,0,0.05,27,0)" xlink:href="#av"/><use transform="matrix(0.05,0,0,0.05,37,0)" xlink:href="#aB"/><use transform="matrix(0.05,0,0,0.05,42,0)" xlink:href="#aR"/></g><g id="D"><use transform="matrix(0.05,0,0,0.05,0,0)" xlink:href="#at"/><use transform="matrix(0.05,0,0,0.05,3.95,0)" xlink:href="#aq"/><use transform="matrix(0.05,0,0,0.05,13.949999999999998,0)" xlink:href="#au"/><use transform="matrix(0.05,0,0,0.05,22.95,0)" xlink:href="#az"/><use transform="matrix(0.05,0,0,0.05,32.95,0)" xlink:href="#av"/><use transform="matrix(0.05,0,0,0.05,42.95,0)" xlink:href="#ar"/><use transform="matrix(0.05,0,0,0.05,51.95,0)" xlink:href="#aB"/><use transform="matrix(0.05,0,0,0.05,56.95,0)" xlink:href="#at"/><use transform="matrix(0.05,0,0,0.05,60.900000000000006,0)" xlink:href="#ax"/><use transform="matrix(0.05,0,0,0.05,70.9,0)" xlink:href="#aq"/></g><g id="E"><use transform="matrix(0.05,0,0,0.05,0,0)" xlink:href="#aN"/><use transform="matrix(0.05,0,0,0.05,12,0)" xlink:href="#ap"/><use transform="matrix(0.05,0,0,0.05,22,0)" xlink:href="#aw"/><use transform="matrix(0.05,0,0,0.05,25.950000000000003,0)" xlink:href="#av"/></g><g id="F"><use transform="matrix(0.05,0,0,0.05,0,0)" xlink:href="#au"/><use transform="matrix(0.05,0,0,0.05,9,0)" xlink:href="#ap"/><use transform="matrix(0.05,0,0,0.05,19,0)" xlink:href="#aw"/><use transform="matrix(0.05,0,0,0.05,22.95,0)" xlink:href="#av"/></g><path fill="#fff" d="M212-179c-10-28-35-45-73-45-59 0-87 40-87 99 0 60 29 101 89 101 43 0 62-24 78-52l27 14C228-24 195 4 139 4 59 4 22-46 18-125c-6-104 99-153 187-111 19 9 31 26 39 46" id="aS"/><g id="G"><use transform="matrix(0.05,0,0,0.05,0,0)" xlink:href="#aS"/><use transform="matrix(0.05,0,0,0.05,12.950000000000001,0)" xlink:href="#ax"/><use transform="matrix(0.05,0,0,0.05,22.950000000000003,0)" xlink:href="#aA"/><use transform="matrix(0.05,0,0,0.05,32.95,0)" xlink:href="#aq"/><use transform="matrix(0.05,0,0,0.05,42.95,0)" xlink:href="#aB"/><use transform="matrix(0.05,0,0,0.05,47.95,0)" xlink:href="#ao"/><use transform="matrix(0.05,0,0,0.05,53.900000000000006,0)" xlink:href="#aR"/></g><g id="H"><use transform="matrix(0.05,0,0,0.05,0,0)" xlink:href="#aS"/><use transform="matrix(0.05,0,0,0.05,12.950000000000001,0)" xlink:href="#at"/><use transform="matrix(0.05,0,0,0.05,16.900000000000002,0)" xlink:href="#aB"/><use transform="matrix(0.05,0,0,0.05,21.900000000000002,0)" xlink:href="#aR"/></g><g id="I"><use transform="matrix(0.05,0,0,0.05,0,0)" xlink:href="#aN"/><use transform="matrix(0.05,0,0,0.05,12,0)" xlink:href="#aA"/><use transform="matrix(0.05,0,0,0.05,22,0)" xlink:href="#az"/><use transform="matrix(0.05,0,0,0.05,32,0)" xlink:href="#az"/><use transform="matrix(0.05,0,0,0.05,42,0)" xlink:href="#aw"/><use transform="matrix(0.05,0,0,0.05,45.95,0)" xlink:href="#at"/><use transform="matrix(0.05,0,0,0.05,49.900000000000006,0)" xlink:href="#av"/><use transform="matrix(0.05,0,0,0.05,59.900000000000006,0)" xlink:href="#ao"/></g><path fill="#fff" d="M140-251c81 0 123 46 123 126C263-46 219 4 140 4 59 4 17-45 17-125s42-126 123-126zm0 227c63 0 89-41 89-101s-29-99-89-99c-61 0-89 39-89 99S79-25 140-24" id="aT"/><g id="J"><use transform="matrix(0.05,0,0,0.05,0,0)" xlink:href="#aT"/><use transform="matrix(0.05,0,0,0.05,14,0)" xlink:href="#ao"/><use transform="matrix(0.05,0,0,0.05,19.95,0)" xlink:href="#aE"/><use transform="matrix(0.05,0,0,0.05,29.950000000000003,0)" xlink:href="#av"/><use transform="matrix(0.05,0,0,0.05,39.95,0)" xlink:href="#ao"/><use transform="matrix(0.05,0,0,0.05,45.900000000000006,0)" xlink:href="#au"/></g><g id="K"><use transform="matrix(0.05,0,0,0.05,0,0)" xlink:href="#aJ"/><use transform="matrix(0.05,0,0,0.05,10,0)" xlink:href="#ao"/><use transform="matrix(0.05,0,0,0.05,15.949999999999998,0)" xlink:href="#ax"/><use transform="matrix(0.05,0,0,0.05,25.950000000000003,0)" xlink:href="#aP"/><use transform="matrix(0.05,0,0,0.05,38.9,0)" xlink:href="#au"/><use transform="matrix(0.05,0,0,0.05,47.9,0)" xlink:href="#av"/><use transform="matrix(0.05,0,0,0.05,57.900000000000006,0)" xlink:href="#ao"/></g><path fill="#fff" d="M30-248c87 1 191-15 191 75 0 78-77 80-158 76V0H30v-248zm33 125c57 0 124 11 124-50 0-59-68-47-124-48v98" id="aU"/><g id="L"><use transform="matrix(0.05,0,0,0.05,0,0)" xlink:href="#aU"/><use transform="matrix(0.05,0,0,0.05,12,0)" xlink:href="#aw"/><use transform="matrix(0.05,0,0,0.05,15.949999999999998,0)" xlink:href="#ap"/><use transform="matrix(0.05,0,0,0.05,25.950000000000003,0)" xlink:href="#ar"/><use transform="matrix(0.05,0,0,0.05,34.95,0)" xlink:href="#av"/></g><path fill="#fff" d="M30 0v-248h187v28H63v79h144v27H63v87h162V0H30" id="aV"/><path fill="#fff" d="M108 0H70L1-190h34L89-25l56-165h34" id="aW"/><g id="M"><use transform="matrix(0.05,0,0,0.05,0,0)" xlink:href="#aV"/><use transform="matrix(0.05,0,0,0.05,12,0)" xlink:href="#aW"/><use transform="matrix(0.05,0,0,0.05,21,0)" xlink:href="#av"/><use transform="matrix(0.05,0,0,0.05,31,0)" xlink:href="#aq"/><use transform="matrix(0.05,0,0,0.05,41,0)" xlink:href="#aB"/><use transform="matrix(0.05,0,0,0.05,46,0)" xlink:href="#au"/></g><g id="N"><use transform="matrix(0.05,0,0,0.05,0,0)" xlink:href="#aN"/><use transform="matrix(0.05,0,0,0.05,12,0)" xlink:href="#aA"/><use transform="matrix(0.05,0,0,0.05,22,0)" xlink:href="#aJ"/><use transform="matrix(0.05,0,0,0.05,32,0)" xlink:href="#aC"/><use transform="matrix(0.05,0,0,0.05,46.95,0)" xlink:href="#at"/><use transform="matrix(0.05,0,0,0.05,50.900000000000006,0)" xlink:href="#aB"/></g><g id="O"><use transform="matrix(0.05,0,0,0.05,0,0)" xlink:href="#av"/><use transform="matrix(0.05,0,0,0.05,10,0)" xlink:href="#aW"/><use transform="matrix(0.05,0,0,0.05,19,0)" xlink:href="#av"/><use transform="matrix(0.05,0,0,0.05,29,0)" xlink:href="#aq"/><use transform="matrix(0.05,0,0,0.05,39,0)" xlink:href="#aB"/><use transform="matrix(0.05,0,0,0.05,44,0)" xlink:href="#au"/></g><path fill="#fff" d="M30 0v-248h33v221h125V0H30" id="aX"/><g id="P"><use transform="matrix(0.05,0,0,0.05,0,0)" xlink:href="#aX"/><use transform="matrix(0.05,0,0,0.05,10,0)" xlink:href="#ax"/><use transform="matrix(0.05,0,0,0.05,20,0)" xlink:href="#aR"/><use transform="matrix(0.05,0,0,0.05,29,0)" xlink:href="#ap"/><use transform="matrix(0.05,0,0,0.05,39,0)" xlink:href="#aw"/><use transform="matrix(0.05,0,0,0.05,42.95,0)" xlink:href="#aB"/><use transform="matrix(0.05,0,0,0.05,47.95,0)" xlink:href="#aR"/></g><g id="Q"><use transform="matrix(0.05,0,0,0.05,0,0)" xlink:href="#ar"/><use transform="matrix(0.05,0,0,0.05,9,0)" xlink:href="#ap"/><use transform="matrix(0.05,0,0,0.05,19,0)" xlink:href="#ao"/><use transform="matrix(0.05,0,0,0.05,24.95,0)" xlink:href="#aE"/></g><path fill="#fff" d="M143 4C61 4 22-44 18-125c-5-107 100-154 193-111 17 8 29 25 37 43l-32 9c-13-25-37-40-76-40-61 0-88 39-88 99 0 61 29 100 91 101 35 0 62-11 79-27v-45h-74v-28h105v86C228-13 192 4 143 4" id="aY"/><g id="R"><use transform="matrix(0.05,0,0,0.05,0,0)" xlink:href="#aI"/><use transform="matrix(0.05,0,0,0.05,16.95,0)" xlink:href="#aV"/><use transform="matrix(0.05,0,0,0.05,28.950000000000003,0)" xlink:href="#aQ"/><use transform="matrix(0.05,0,0,0.05,40.95,0)" xlink:href="#aY"/><use transform="matrix(0.05,0,0,0.05,54.95,0)" xlink:href="#aX"/></g><g id="S"><use transform="matrix(0.05,0,0,0.05,0,0)" xlink:href="#az"/><use transform="matrix(0.05,0,0,0.05,10,0)" xlink:href="#ao"/><use transform="matrix(0.05,0,0,0.05,15.949999999999998,0)" xlink:href="#av"/><use transform="matrix(0.05,0,0,0.05,25.950000000000003,0)" xlink:href="#au"/><use transform="matrix(0.05,0,0,0.05,34.95,0)" xlink:href="#av"/><use transform="matrix(0.05,0,0,0.05,44.95,0)" xlink:href="#aq"/><use transform="matrix(0.05,0,0,0.05,54.95,0)" xlink:href="#aB"/><use transform="matrix(0.05,0,0,0.05,59.95,0)" xlink:href="#ap"/><use transform="matrix(0.05,0,0,0.05,69.95,0)" xlink:href="#aB"/><use transform="matrix(0.05,0,0,0.05,74.95,0)" xlink:href="#at"/><use transform="matrix(0.05,0,0,0.05,78.9,0)" xlink:href="#ax"/><use transform="matrix(0.05,0,0,0.05,88.9,0)" xlink:href="#aq"/></g><g id="T"><use transform="matrix(0.05,0,0,0.05,0,0)" xlink:href="#aG"/><use transform="matrix(0.05,0,0,0.05,12,0)" xlink:href="#ar"/><use transform="matrix(0.05,0,0,0.05,21,0)" xlink:href="#ar"/><use transform="matrix(0.05,0,0,0.05,30,0)" xlink:href="#ax"/><use transform="matrix(0.05,0,0,0.05,40,0)" xlink:href="#aA"/><use transform="matrix(0.05,0,0,0.05,50,0)" xlink:href="#aq"/><use transform="matrix(0.05,0,0,0.05,60,0)" xlink:href="#aB"/></g><g id="U"><use transform="matrix(0.05,0,0,0.05,0,0)" xlink:href="#aC"/><use transform="matrix(0.05,0,0,0.05,14.950000000000001,0)" xlink:href="#ap"/><use transform="matrix(0.05,0,0,0.05,24.950000000000003,0)" xlink:href="#aq"/><use transform="matrix(0.05,0,0,0.05,34.95,0)" xlink:href="#ap"/><use transform="matrix(0.05,0,0,0.05,44.95,0)" xlink:href="#ay"/><use transform="matrix(0.05,0,0,0.05,54.95,0)" xlink:href="#av"/><use transform="matrix(0.05,0,0,0.05,64.95,0)" xlink:href="#aC"/><use transform="matrix(0.05,0,0,0.05,79.9,0)" xlink:href="#av"/><use transform="matrix(0.05,0,0,0.05,89.9,0)" xlink:href="#aq"/><use transform="matrix(0.05,0,0,0.05,99.9,0)" xlink:href="#aB"/></g></defs></g></svg>